<?xml version="1.0" encoding="us-ascii" standalone="no"?><svg xmlns="http://www.w3.org/2000/svg" xmlns:xlink="http://www.w3.org/1999/xlink" contentStyleType="text/css" height="594px" preserveAspectRatio="none" style="width:286px;height:594px;background:#FFFFFF;" version="1.1" viewBox="0 0 286 594" width="286px" zoomAndPan="magnify"><defs/><g><!--class data--><g id="elem_data"><rect codeLine="5" fill="#F1F1F1" height="181.4754" id="data" rx="2.5" ry="2.5" style="stroke:#181818;stroke-width:0.5;" width="226" x="7" y="7"/><ellipse cx="100.75" cy="23" fill="#ADD1B2" rx="11" ry="11" style="stroke:#181818;stroke-width:1.0;"/><path d="M103.7188,28.6406 Q103.1406,28.9375 102.5,29.0781 Q101.8594,29.2344 101.1563,29.2344 Q98.6563,29.2344 97.3281,27.5938 Q96.0156,25.9375 96.0156,22.8125 Q96.0156,19.6875 97.3281,18.0313 Q98.6563,16.375 101.1563,16.375 Q101.8594,16.375 102.5,16.5313 Q103.1563,16.6875 103.7188,16.9844 L103.7188,19.7031 Q103.0938,19.125 102.5,18.8594 Q101.9063,18.5781 101.2813,18.5781 Q99.9375,18.5781 99.25,19.6563 Q98.5625,20.7188 98.5625,22.8125 Q98.5625,24.9063 99.25,25.9844 Q99.9375,27.0469 101.2813,27.0469 Q101.9063,27.0469 102.5,26.7813 Q103.0938,26.5 103.7188,25.9219 L103.7188,28.6406 Z " fill="#000000"/><text fill="#000000" font-family="sans-serif" font-size="14" lengthAdjust="spacing" textLength="30" x="121.25" y="28.432">data</text><line style="stroke:#181818;stroke-width:0.5;" x1="8" x2="232" y1="39" y2="39"/><text fill="#000000" font-family="sans-serif" font-size="14" lengthAdjust="spacing" textLength="102" x="13" y="57.9659">string csv_KWB</text><text fill="#000000" font-family="sans-serif" font-size="14" lengthAdjust="spacing" textLength="214" x="13" y="77.0339">string kpkg_neighborhood_map</text><text fill="#000000" font-family="sans-serif" font-size="14" lengthAdjust="spacing" textLength="54" x="13" y="96.1018">network</text><line style="stroke:#181818;stroke-width:0.5;" x1="8" x2="232" y1="104.2038" y2="104.2038"/><text fill="#000000" font-family="sans-serif" font-size="14" lengthAdjust="spacing" textLength="103" x="13" y="123.1697">void load_files()</text><text fill="#000000" font-family="sans-serif" font-size="14" lengthAdjust="spacing" textLength="121" x="13" y="142.2376">void pre_process()</text><text fill="#000000" font-family="sans-serif" font-size="14" lengthAdjust="spacing" textLength="146" x="13" y="161.3055">void run_simulation(f)</text><text fill="#000000" font-family="sans-serif" font-size="14" lengthAdjust="spacing" textLength="105" x="13" y="180.3734">Lst get_results()</text></g><!--class network--><g id="elem_network"><rect codeLine="15" fill="#F1F1F1" height="86.1358" id="network" rx="2.5" ry="2.5" style="stroke:#181818;stroke-width:0.5;" width="86" x="77" y="256"/><ellipse cx="92" cy="272" fill="#ADD1B2" rx="11" ry="11" style="stroke:#181818;stroke-width:1.0;"/><path d="M94.9688,277.6406 Q94.3906,277.9375 93.75,278.0781 Q93.1094,278.2344 92.4063,278.2344 Q89.9063,278.2344 88.5781,276.5938 Q87.2656,274.9375 87.2656,271.8125 Q87.2656,268.6875 88.5781,267.0313 Q89.9063,265.375 92.4063,265.375 Q93.1094,265.375 93.75,265.5313 Q94.4063,265.6875 94.9688,265.9844 L94.9688,268.7031 Q94.3438,268.125 93.75,267.8594 Q93.1563,267.5781 92.5313,267.5781 Q91.1875,267.5781 90.5,268.6563 Q89.8125,269.7188 89.8125,271.8125 Q89.8125,273.9063 90.5,274.9844 Q91.1875,276.0469 92.5313,276.0469 Q93.1563,276.0469 93.75,275.7813 Q94.3438,275.5 94.9688,274.9219 L94.9688,277.6406 Z " fill="#000000"/><text fill="#000000" font-family="sans-serif" font-size="14" lengthAdjust="spacing" textLength="54" x="106" y="277.432">network</text><line style="stroke:#181818;stroke-width:0.5;" x1="78" x2="162" y1="288" y2="288"/><text fill="#000000" font-family="sans-serif" font-size="14" lengthAdjust="spacing" textLength="64" x="83" y="306.9659">Lst nodes</text><text fill="#000000" font-family="sans-serif" font-size="14" lengthAdjust="spacing" textLength="64" x="83" y="326.0339">Lst edges</text><line style="stroke:#181818;stroke-width:0.5;" x1="78" x2="162" y1="334.1358" y2="334.1358"/></g><!--class neighborhood--><g id="elem_neighborhood"><rect codeLine="20" fill="#F1F1F1" height="181.4754" id="neighborhood" rx="2.5" ry="2.5" style="stroke:#181818;stroke-width:0.5;" width="225" x="7.5" y="406"/><ellipse cx="67.75" cy="422" fill="#ADD1B2" rx="11" ry="11" style="stroke:#181818;stroke-width:1.0;"/><path d="M70.7188,427.6406 Q70.1406,427.9375 69.5,428.0781 Q68.8594,428.2344 68.1563,428.2344 Q65.6563,428.2344 64.3281,426.5938 Q63.0156,424.9375 63.0156,421.8125 Q63.0156,418.6875 64.3281,417.0313 Q65.6563,415.375 68.1563,415.375 Q68.8594,415.375 69.5,415.5313 Q70.1563,415.6875 70.7188,415.9844 L70.7188,418.7031 Q70.0938,418.125 69.5,417.8594 Q68.9063,417.5781 68.2813,417.5781 Q66.9375,417.5781 66.25,418.6563 Q65.5625,419.7188 65.5625,421.8125 Q65.5625,423.9063 66.25,424.9844 Q66.9375,426.0469 68.2813,426.0469 Q68.9063,426.0469 69.5,425.7813 Q70.0938,425.5 70.7188,424.9219 L70.7188,427.6406 Z " fill="#000000"/><text fill="#000000" font-family="sans-serif" font-size="14" lengthAdjust="spacing" textLength="96" x="88.25" y="427.432">neighborhood</text><line style="stroke:#181818;stroke-width:0.5;" x1="8.5" x2="231.5" y1="438" y2="438"/><text fill="#000000" font-family="sans-serif" font-size="14" lengthAdjust="spacing" textLength="95" x="13.5" y="456.9659">int population</text><text fill="#000000" font-family="sans-serif" font-size="14" lengthAdjust="spacing" textLength="48" x="13.5" y="476.0339">int size</text><text fill="#000000" font-family="sans-serif" font-size="14" lengthAdjust="spacing" textLength="62" x="13.5" y="495.1018">int males</text><text fill="#000000" font-family="sans-serif" font-size="14" lengthAdjust="spacing" textLength="75" x="13.5" y="514.1697">int females</text><text fill="#000000" font-family="sans-serif" font-size="14" lengthAdjust="spacing" textLength="80" x="13.5" y="533.2376">int Ethnicity</text><line style="stroke:#181818;stroke-width:0.5;" x1="8.5" x2="231.5" y1="541.3396" y2="541.3396"/><text fill="#000000" font-family="sans-serif" font-size="14" lengthAdjust="spacing" textLength="198" x="13.5" y="560.3055">float get_population_density()</text><text fill="#000000" font-family="sans-serif" font-size="14" lengthAdjust="spacing" textLength="213" x="13.5" y="579.3734">float get_ethnicity_proportions()</text></g><!--link data to network--><g id="link_data_network"><path codeLine="34" d="M234,90.5 C279.11,90.5 251.13,150.69 233,192 C220.08,221.43 199.33,242.7986 175.83,261.1386 " fill="none" id="data-to-network" style="stroke:#181818;stroke-width:1.0;"/><polygon fill="#181818" points="171.1,264.83,180.656,262.4462,175.0417,261.7538,175.7341,256.1395,171.1,264.83" style="stroke:#181818;stroke-width:1.0;"/></g><!--link network to neighborhood--><g id="link_network_neighborhood"><path codeLine="35" d="M164,302 C210.25,302 198.4709,349.7935 174.3509,400.4135 " fill="none" id="network-to-neighborhood" style="stroke:#181818;stroke-width:1.0;"/><polygon fill="#181818" points="171.77,405.83,179.2524,399.4258,173.9208,401.3162,172.0304,395.9846,171.77,405.83" style="stroke:#181818;stroke-width:1.0;"/></g><!--SRC=[ZLAzKiCm3Dxp5DvQXhv01mOE9jWPVIQM4rqSosSvvO3ZtR4JDqvX85xaJ_hqhyDXpsiM8Hx1e4FN2MMjQArY1XP_QFz6cps5Lb69hqQanp7ag2rVvFFhmrOr-A6J3h3htoZqH5gEoiy41_6TmZ3_BuHQM59Q6hJ0nxkgzG6a3zG2twZ3v2JZE5aLaTpHBAONZgA3A0FmP6Ds-6vAjILTAJWJ7MdW5O7k4jhGQyd51rqKddn9kQeOFs45ex8bPaO6Rl5Jx1ss63zcZKaDB-NMg5A3uqGehLOAN5tpC3o5J2xzxTtQxni8iEJSNi3-6yZRFv-lKpsTxjU55fcCUS35LAVP_000]--></g></svg>