<?xml version="1.0" encoding="us-ascii" standalone="no"?><svg xmlns="http://www.w3.org/2000/svg" xmlns:xlink="http://www.w3.org/1999/xlink" contentStyleType="text/css" height="579px" preserveAspectRatio="none" style="width:638px;height:579px;background:#FFFFFF;" version="1.1" viewBox="0 0 638 579" width="638px" zoomAndPan="magnify"><defs/><g><!--class CBS--><g id="elem_CBS"><rect codeLine="7" fill="#F1F1F1" height="143.3396" id="CBS" rx="2.5" ry="2.5" style="stroke:#181818;stroke-width:0.5;" width="288" x="91.04" y="7"/><ellipse cx="217.79" cy="23" fill="#ADD1B2" rx="11" ry="11" style="stroke:#181818;stroke-width:1.0;"/><path d="M221.8994,29 L214.1806,29 L214.1806,16.6094 L221.8994,16.6094 L221.8994,18.7656 L216.6338,18.7656 L216.6338,21.4375 L221.3994,21.4375 L221.3994,23.5938 L216.6338,23.5938 L216.6338,26.8438 L221.8994,26.8438 L221.8994,29 Z " fill="#000000"/><text fill="#000000" font-family="sans-serif" font-size="14" lengthAdjust="spacing" textLength="26" x="238.29" y="28.432">CBS</text><line style="stroke:#181818;stroke-width:0.5;" x1="92.04" x2="378.04" y1="39" y2="39"/><ellipse cx="102.04" cy="54.034" fill="#000000" rx="3" ry="3" style="stroke:#000000;stroke-width:1.0;"/><text fill="#000000" font-family="sans-serif" font-size="14" lengthAdjust="spacing" textLength="166" x="111.04" y="57.9659">gwb_code &#171;primary_key&#187;</text><ellipse cx="102.04" cy="73.1019" fill="#000000" rx="3" ry="3" style="stroke:#000000;stroke-width:1.0;"/><text fill="#000000" font-family="sans-serif" font-size="14" lengthAdjust="spacing" textLength="98" x="111.04" y="77.0339">regio &#171;names&#187;</text><ellipse cx="102.04" cy="92.1698" fill="#000000" rx="3" ry="3" style="stroke:#000000;stroke-width:1.0;"/><text fill="#000000" font-family="sans-serif" font-size="14" lengthAdjust="spacing" textLength="262" x="111.04" y="96.1018">recs &#171;Land | Gemeente | Wijk | Buurt&#187;</text><ellipse cx="102.04" cy="111.2377" fill="#000000" rx="3" ry="3" style="stroke:#000000;stroke-width:1.0;"/><text fill="#000000" font-family="sans-serif" font-size="14" lengthAdjust="spacing" textLength="109" x="111.04" y="115.1697">geom &#171;borders&#187;</text><text fill="#000000" font-family="sans-serif" font-size="14" lengthAdjust="spacing" textLength="122" x="111.04" y="134.2376">demographic_info</text><line style="stroke:#181818;stroke-width:0.5;" x1="92.04" x2="378.04" y1="142.3396" y2="142.3396"/></g><!--class Graph_nodes--><g id="elem_Graph_nodes"><rect codeLine="16" fill="#F1F1F1" height="143.3396" id="Graph_nodes" rx="2.5" ry="2.5" style="stroke:#181818;stroke-width:0.5;" width="227" x="343.54" y="429"/><ellipse cx="408.29" cy="445" fill="#ADD1B2" rx="11" ry="11" style="stroke:#181818;stroke-width:1.0;"/><path d="M412.3994,451 L404.6806,451 L404.6806,438.6094 L412.3994,438.6094 L412.3994,440.7656 L407.1337,440.7656 L407.1337,443.4375 L411.8994,443.4375 L411.8994,445.5938 L407.1337,445.5938 L407.1337,448.8438 L412.3994,448.8438 L412.3994,451 Z " fill="#000000"/><text fill="#000000" font-family="sans-serif" font-size="14" lengthAdjust="spacing" textLength="89" x="428.79" y="450.432">Graph_nodes</text><line style="stroke:#181818;stroke-width:0.5;" x1="344.54" x2="569.54" y1="461" y2="461"/><ellipse cx="354.54" cy="476.034" fill="#000000" rx="3" ry="3" style="stroke:#000000;stroke-width:1.0;"/><text fill="#000000" font-family="sans-serif" font-size="14" lengthAdjust="spacing" textLength="152" x="363.54" y="479.9659">node_id &#171;primary_key&#187;</text><ellipse cx="354.54" cy="495.1019" fill="#000000" rx="3" ry="3" style="stroke:#000000;stroke-width:1.0;"/><text fill="#000000" font-family="sans-serif" font-size="14" lengthAdjust="spacing" textLength="83" x="363.54" y="499.0339">street_count</text><ellipse cx="354.54" cy="514.1698" fill="#000000" rx="3" ry="3" style="stroke:#000000;stroke-width:1.0;"/><text fill="#000000" font-family="sans-serif" font-size="14" lengthAdjust="spacing" textLength="80" x="363.54" y="518.1018">loc &#171;POINT&#187;</text><text fill="#000000" font-family="sans-serif" font-size="14" lengthAdjust="spacing" textLength="201" x="363.54" y="537.1697">neighborhood &#171;performance&#187;</text><text fill="#000000" font-family="sans-serif" font-size="14" lengthAdjust="spacing" textLength="66" x="363.54" y="556.2376">node_info</text><line style="stroke:#181818;stroke-width:0.5;" x1="344.54" x2="569.54" y1="564.3396" y2="564.3396"/></g><!--class Graph_edges--><g id="elem_Graph_edges"><rect codeLine="24" fill="#F1F1F1" height="143.3396" id="Graph_edges" rx="2.5" ry="2.5" style="stroke:#181818;stroke-width:0.5;" width="178" x="453.04" y="218"/><ellipse cx="493.69" cy="234" fill="#ADD1B2" rx="11" ry="11" style="stroke:#181818;stroke-width:1.0;"/><path d="M497.7994,240 L490.0806,240 L490.0806,227.6094 L497.7994,227.6094 L497.7994,229.7656 L492.5337,229.7656 L492.5337,232.4375 L497.2994,232.4375 L497.2994,234.5938 L492.5337,234.5938 L492.5337,237.8438 L497.7994,237.8438 L497.7994,240 Z " fill="#000000"/><text fill="#000000" font-family="sans-serif" font-size="14" lengthAdjust="spacing" textLength="89" x="513.39" y="239.432">Graph_edges</text><line style="stroke:#181818;stroke-width:0.5;" x1="454.04" x2="630.04" y1="250" y2="250"/><ellipse cx="464.04" cy="265.034" fill="#000000" rx="3" ry="3" style="stroke:#000000;stroke-width:1.0;"/><text fill="#000000" font-family="sans-serif" font-size="14" lengthAdjust="spacing" textLength="152" x="473.04" y="268.9659">edge_id &#171;primary_key&#187;</text><ellipse cx="464.04" cy="284.1019" fill="#000000" rx="3" ry="3" style="stroke:#000000;stroke-width:1.0;"/><text fill="#000000" font-family="sans-serif" font-size="14" lengthAdjust="spacing" textLength="42" x="473.04" y="288.0339">node1</text><ellipse cx="464.04" cy="303.1698" fill="#000000" rx="3" ry="3" style="stroke:#000000;stroke-width:1.0;"/><text fill="#000000" font-family="sans-serif" font-size="14" lengthAdjust="spacing" textLength="42" x="473.04" y="307.1018">node2</text><ellipse cx="464.04" cy="322.2377" fill="#000000" rx="3" ry="3" style="stroke:#000000;stroke-width:1.0;"/><text fill="#000000" font-family="sans-serif" font-size="14" lengthAdjust="spacing" textLength="44" x="473.04" y="326.1697">length</text><text fill="#000000" font-family="sans-serif" font-size="14" lengthAdjust="spacing" textLength="66" x="473.04" y="345.2376">edge_info</text><line style="stroke:#181818;stroke-width:0.5;" x1="454.04" x2="630.04" y1="353.3396" y2="353.3396"/></g><!--class Neighborhood_pts--><g id="elem_Neighborhood_pts"><rect codeLine="35" fill="#F1F1F1" height="105.2038" id="Neighborhood_pts" rx="2.5" ry="2.5" style="stroke:#181818;stroke-width:0.5;" width="192" x="74.04" y="448"/><ellipse cx="104.79" cy="464" fill="#ADD1B2" rx="11" ry="11" style="stroke:#181818;stroke-width:1.0;"/><path d="M108.8994,470 L101.1806,470 L101.1806,457.6094 L108.8994,457.6094 L108.8994,459.7656 L103.6337,459.7656 L103.6337,462.4375 L108.3994,462.4375 L108.3994,464.5938 L103.6337,464.5938 L103.6337,467.8438 L108.8994,467.8438 L108.8994,470 Z " fill="#000000"/><text fill="#000000" font-family="sans-serif" font-size="14" lengthAdjust="spacing" textLength="125" x="122.29" y="469.432">Neighborhood_pts</text><line style="stroke:#181818;stroke-width:0.5;" x1="75.04" x2="265.04" y1="480" y2="480"/><ellipse cx="85.04" cy="495.034" fill="#000000" rx="3" ry="3" style="stroke:#000000;stroke-width:1.0;"/><text fill="#000000" font-family="sans-serif" font-size="14" lengthAdjust="spacing" textLength="166" x="94.04" y="498.9659">gwb_code &#171;primary_key&#187;</text><ellipse cx="85.04" cy="514.1019" fill="#000000" rx="3" ry="3" style="stroke:#000000;stroke-width:1.0;"/><text fill="#000000" font-family="sans-serif" font-size="14" lengthAdjust="spacing" textLength="112" x="94.04" y="518.0339">id &#171;primary_key&#187;</text><ellipse cx="85.04" cy="533.1698" fill="#000000" rx="3" ry="3" style="stroke:#000000;stroke-width:1.0;"/><text fill="#000000" font-family="sans-serif" font-size="14" lengthAdjust="spacing" textLength="75" x="94.04" y="537.1018">pt &#171;POINT&#187;</text><line style="stroke:#181818;stroke-width:0.5;" x1="75.04" x2="265.04" y1="545.2038" y2="545.2038"/></g><!--class Neighborhood--><g id="elem_Neighborhood"><rect codeLine="47" fill="#F1F1F1" height="124.2717" id="Neighborhood" rx="2.5" ry="2.5" style="stroke:#181818;stroke-width:0.5;" width="192" x="139.04" y="227.5"/><ellipse cx="181.94" cy="243.5" fill="#ADD1B2" rx="11" ry="11" style="stroke:#181818;stroke-width:1.0;"/><path d="M186.0494,249.5 L178.3306,249.5 L178.3306,237.1094 L186.0494,237.1094 L186.0494,239.2656 L180.7838,239.2656 L180.7838,241.9375 L185.5494,241.9375 L185.5494,244.0938 L180.7838,244.0938 L180.7838,247.3438 L186.0494,247.3438 L186.0494,249.5 Z " fill="#000000"/><text fill="#000000" font-family="sans-serif" font-size="14" lengthAdjust="spacing" textLength="98" x="202.14" y="248.932">Neighborhood</text><line style="stroke:#181818;stroke-width:0.5;" x1="140.04" x2="330.04" y1="259.5" y2="259.5"/><ellipse cx="150.04" cy="274.534" fill="#000000" rx="3" ry="3" style="stroke:#000000;stroke-width:1.0;"/><text fill="#000000" font-family="sans-serif" font-size="14" lengthAdjust="spacing" textLength="166" x="159.04" y="278.4659">gwb_code &#171;primary_key&#187;</text><ellipse cx="150.04" cy="293.6019" fill="#000000" rx="3" ry="3" style="stroke:#000000;stroke-width:1.0;"/><text fill="#000000" font-family="sans-serif" font-size="14" lengthAdjust="spacing" textLength="98" x="159.04" y="297.5339">regio &#171;names&#187;</text><ellipse cx="150.04" cy="312.6698" fill="#000000" rx="3" ry="3" style="stroke:#000000;stroke-width:1.0;"/><text fill="#000000" font-family="sans-serif" font-size="14" lengthAdjust="spacing" textLength="109" x="159.04" y="316.6018">geom &#171;borders&#187;</text><text fill="#000000" font-family="sans-serif" font-size="14" lengthAdjust="spacing" textLength="122" x="159.04" y="335.6697">demographic_info</text><line style="stroke:#181818;stroke-width:0.5;" x1="140.04" x2="330.04" y1="343.7717" y2="343.7717"/></g><!--link CBS to Neighborhood--><g id="link_CBS_Neighborhood"><path codeLine="59" d="M235.04,162.07 C235.04,184.69 235.04,193.36 235.04,215.32 " fill="none" id="CBS-Neighborhood" style="stroke:#181818;stroke-width:1.0;"/><line style="stroke:#181818;stroke-width:1.0;" x1="231.04" x2="239.04" y1="158.07" y2="158.07"/><line style="stroke:#181818;stroke-width:1.0;" x1="231.04" x2="239.04" y1="161.07" y2="161.07"/><line style="stroke:#181818;stroke-width:1.0;" x1="235.04" x2="235.04" y1="162.07" y2="154.07"/><line style="stroke:#181818;stroke-width:1.0;" x1="239.04" x2="231.04" y1="219.32" y2="219.32"/><line style="stroke:#181818;stroke-width:1.0;" x1="239.04" x2="231.04" y1="216.32" y2="216.32"/><line style="stroke:#181818;stroke-width:1.0;" x1="235.04" x2="235.04" y1="215.32" y2="223.32"/></g><!--link CBS to Neighborhood_pts--><g id="link_CBS_Neighborhood_pts"><path codeLine="60" d="M75.04,52.5 C26,52.5 6,493.5 55.04,493.5 " fill="none" id="CBS-Neighborhood_pts" style="stroke:#181818;stroke-width:1.0;"/><line style="stroke:#181818;stroke-width:1.0;" x1="79.04" x2="90.04" y1="52.5" y2="52.5"/><ellipse cx="79.04" cy="52.5" fill="none" rx="4" ry="4" style="stroke:#181818;stroke-width:1.0;"/><line style="stroke:#181818;stroke-width:1.0;" x1="86.04" x2="86.04" y1="48.5" y2="56.5"/><line style="stroke:#181818;stroke-width:1.0;" x1="65.04" x2="73.04" y1="493.5" y2="487.5"/><line style="stroke:#181818;stroke-width:1.0;" x1="65.04" x2="73.04" y1="493.5" y2="499.5"/><line style="stroke:#181818;stroke-width:1.0;" x1="65.04" x2="73.04" y1="493.5" y2="493.5"/><ellipse cx="59.04" cy="493.5" fill="none" rx="4" ry="4" style="stroke:#181818;stroke-width:1.0;"/></g><!--link Neighborhood to Neighborhood_pts--><g id="link_Neighborhood_Neighborhood_pts"><path codeLine="61" d="M123.04,272.5 C86.14,272.5 121.77,322.9 139.04,355.5 C171.24,416.3 233.59,383.34 266.04,444 C276.42,463.4 307.04,493.5 285.04,493.5 " fill="none" id="Neighborhood-Neighborhood_pts" style="stroke:#181818;stroke-width:1.0;"/><line style="stroke:#181818;stroke-width:1.0;" x1="127.04" x2="138.04" y1="272.5" y2="272.5"/><ellipse cx="127.04" cy="272.5" fill="none" rx="4" ry="4" style="stroke:#181818;stroke-width:1.0;"/><line style="stroke:#181818;stroke-width:1.0;" x1="134.04" x2="134.04" y1="268.5" y2="276.5"/><line style="stroke:#181818;stroke-width:1.0;" x1="275.04" x2="267.04" y1="493.5" y2="499.5"/><line style="stroke:#181818;stroke-width:1.0;" x1="275.04" x2="267.04" y1="493.5" y2="487.5"/><line style="stroke:#181818;stroke-width:1.0;" x1="275.04" x2="267.04" y1="493.5" y2="493.5"/><ellipse cx="281.04" cy="493.5" fill="none" rx="4" ry="4" style="stroke:#181818;stroke-width:1.0;"/></g><!--link CBS to Graph_nodes--><g id="link_CBS_Graph_nodes"><path codeLine="63" d="M388.04,110.5 C445.59,110.5 416.64,308.59 428.04,365 C431.96,384.43 432.603,387.8029 436.793,407.2729 " fill="none" id="CBS-Graph_nodes" style="stroke:#181818;stroke-width:1.0;"/><line style="stroke:#181818;stroke-width:1.0;" x1="384.04" x2="384.04" y1="114.5" y2="106.5"/><line style="stroke:#181818;stroke-width:1.0;" x1="387.04" x2="387.04" y1="114.5" y2="106.5"/><line style="stroke:#181818;stroke-width:1.0;" x1="388.04" x2="380.04" y1="110.5" y2="110.5"/><line style="stroke:#181818;stroke-width:1.0;" x1="438.8969" x2="446.4457" y1="417.0491" y2="423.6077"/><line style="stroke:#181818;stroke-width:1.0;" x1="438.8969" x2="434.7143" y1="417.0491" y2="426.1323"/><line style="stroke:#181818;stroke-width:1.0;" x1="438.8969" x2="440.58" y1="417.0491" y2="424.87"/><ellipse cx="437.6346" cy="411.1833" fill="none" rx="4" ry="4" style="stroke:#181818;stroke-width:1.0;"/></g><!--link Neighborhood to Graph_nodes--><g id="link_Neighborhood_Graph_nodes"><path codeLine="64" d="M340.04,311.5 C368.21,311.5 350.59,341.44 366.04,365 C378.79,384.45 382.7014,390.4162 395.7914,409.7862 " fill="none" id="Neighborhood-Graph_nodes" style="stroke:#181818;stroke-width:1.0;"/><line style="stroke:#181818;stroke-width:1.0;" x1="336.04" x2="336.04" y1="315.5" y2="307.5"/><line style="stroke:#181818;stroke-width:1.0;" x1="339.04" x2="339.04" y1="315.5" y2="307.5"/><line style="stroke:#181818;stroke-width:1.0;" x1="340.04" x2="332.04" y1="311.5" y2="311.5"/><line style="stroke:#181818;stroke-width:1.0;" x1="401.3906" x2="410.8413" y1="418.0716" y2="421.3405"/><line style="stroke:#181818;stroke-width:1.0;" x1="401.3906" x2="400.8987" y1="418.0716" y2="428.0595"/><line style="stroke:#181818;stroke-width:1.0;" x1="401.3906" x2="405.87" y1="418.0716" y2="424.7"/><ellipse cx="398.0311" cy="413.1004" fill="none" rx="4" ry="4" style="stroke:#181818;stroke-width:1.0;"/></g><!--link Graph_edges to Graph_nodes--><g id="link_Graph_edges_Graph_nodes"><path codeLine="66" d="M444.04,282.5 C407.37,282.5 433.67,333.86 453.04,365 C484.1,414.96 539.77,375.16 571.04,425 C582.73,443.64 602.04,474.5 580.04,474.5 " fill="none" id="Graph_edges-Graph_nodes" style="stroke:#181818;stroke-width:1.0;"/><line style="stroke:#181818;stroke-width:1.0;" x1="448.04" x2="448.04" y1="278.5" y2="286.5"/><line style="stroke:#181818;stroke-width:1.0;" x1="445.04" x2="445.04" y1="278.5" y2="286.5"/><line style="stroke:#181818;stroke-width:1.0;" x1="444.04" x2="452.04" y1="282.5" y2="282.5"/><line style="stroke:#181818;stroke-width:1.0;" x1="576.04" x2="576.04" y1="478.5" y2="470.5"/><line style="stroke:#181818;stroke-width:1.0;" x1="579.04" x2="579.04" y1="478.5" y2="470.5"/><line style="stroke:#181818;stroke-width:1.0;" x1="580.04" x2="572.04" y1="474.5" y2="474.5"/></g><!--link Graph_edges to Graph_nodes--><g id="link_Graph_edges_Graph_nodes"><path codeLine="67" d="M444.04,302.5 C416.25,302.5 438.32,341.44 453.04,365 C484.2,414.9 539.77,375.16 571.04,425 C582.73,443.64 602.04,474.5 580.04,474.5 " fill="none" id="Graph_edges-Graph_nodes-1" style="stroke:#181818;stroke-width:1.0;"/><line style="stroke:#181818;stroke-width:1.0;" x1="448.04" x2="448.04" y1="298.5" y2="306.5"/><line style="stroke:#181818;stroke-width:1.0;" x1="445.04" x2="445.04" y1="298.5" y2="306.5"/><line style="stroke:#181818;stroke-width:1.0;" x1="444.04" x2="452.04" y1="302.5" y2="302.5"/><line style="stroke:#181818;stroke-width:1.0;" x1="576.04" x2="576.04" y1="478.5" y2="470.5"/><line style="stroke:#181818;stroke-width:1.0;" x1="579.04" x2="579.04" y1="478.5" y2="470.5"/><line style="stroke:#181818;stroke-width:1.0;" x1="580.04" x2="572.04" y1="474.5" y2="474.5"/></g><!--SRC=[fLHDRzGm4BtdLynj0IahKObBL2hH0XKIj9LQYMFaJMOJKsSciXsMjE6_Cyu7c-ssPIjoIJn-VfutUJEBnI5FDBpW8wurQIf06GEPKSwXWptOFzcY1LmI29FNokWxvJLJXEIrR-7iz1hk8v3dJR5PfHdd2CV7jTMLicrwY-t9oR1hiT0iMwGgTDjWvYJsLL4E7PnZXKABylbT_xYLrsdJM3-12-HAm2ksETg98iUA2wlgKcUffZL7lqEwdzb2hhoA5IdJEks02No9G9AVBDQWm2XR85nUVwDVq3DCaix38XsGexImI7N-k3BdBQ8NwGtv8M8u4-ZLvPUBcn54g8jICY-PUnQqQxQLeWmdG7_3A60d4SoBRI9XyMGYWUFjzlDeJ0Qfy6N_FPmUBv4otKX5ta7Dchm3YxL55wuEXjd9U0cVVg9j1oH8DHKuGHc4Z4rJIMbPsCHal86iSPuhSSbAjgcfLcX3lSTBHFW3vadinIoQrjuTvggdIb7xsG_eBN5cK17c84AS-3Va5BohrbvI4kLnRJb35tGj0vp9Aqt1EAQLb36NiuDQ1nljIt1S8RogbGrTOThNC188BbXlsNUDd1MFlr_qHfQ6Wokk6zDta5YNd2YNu8SAATHW6-bF1Z8AxFikVwHe_z661tVMeHFZuVonE6YUJvyNp9_mexekZhjkHt689ybVlHt7CT_3dfEsa6Y-zRAJursXK24JGS_6H9BSCUsnFukDPisT97tdJX9tmEFasOSVFGl_0m00]--></g></svg>